<svg width="1200" height="720" viewBox="0 0 1200 720" fill="none" xmlns="http://www.w3.org/2000/svg">
  <rect width="1200" height="720" rx="32" fill="#07111D"/>
  <rect x="24" y="24" width="1152" height="672" rx="28" stroke="#1C3147"/>
  <text x="56" y="80" fill="#EEF4FB" font-size="34" font-family="Inter, Arial, sans-serif" font-weight="700">EasyFlow Product Architecture</text>
  <text x="56" y="114" fill="#86A3BD" font-size="16" font-family="Inter, Arial, sans-serif">Multi-tenant process design, workflow APIs, async runtime, connectors, and AI insights.</text>

  <rect x="56" y="170" width="220" height="110" rx="20" fill="#0D1B2A" stroke="#20425E"/>
  <text x="82" y="206" fill="#59E1D9" font-size="14" font-family="Inter, Arial, sans-serif" letter-spacing="2">USERS</text>
  <text x="82" y="238" fill="#EEF4FB" font-size="22" font-family="Inter, Arial, sans-serif" font-weight="600">Superadmin</text>
  <text x="82" y="266" fill="#B5C7D8" font-size="18" font-family="Inter, Arial, sans-serif">Tenant Admin</text>

  <rect x="336" y="150" width="250" height="160" rx="22" fill="#0D1B2A" stroke="#20425E"/>
  <text x="362" y="186" fill="#59E1D9" font-size="14" font-family="Inter, Arial, sans-serif" letter-spacing="2">WEB APP</text>
  <text x="362" y="222" fill="#EEF4FB" font-size="22" font-family="Inter, Arial, sans-serif" font-weight="600">Next.js + Tailwind</text>
  <text x="362" y="254" fill="#B5C7D8" font-size="17" font-family="Inter, Arial, sans-serif">Business Process Canvas</text>
  <text x="362" y="282" fill="#B5C7D8" font-size="17" font-family="Inter, Arial, sans-serif">Tenant Dashboards</text>

  <rect x="646" y="120" width="240" height="220" rx="22" fill="#0D1B2A" stroke="#20425E"/>
  <text x="672" y="156" fill="#59E1D9" font-size="14" font-family="Inter, Arial, sans-serif" letter-spacing="2">API</text>
  <text x="672" y="192" fill="#EEF4FB" font-size="22" font-family="Inter, Arial, sans-serif" font-weight="600">FastAPI</text>
  <text x="672" y="224" fill="#B5C7D8" font-size="17" font-family="Inter, Arial, sans-serif">Tenant Registry</text>
  <text x="672" y="252" fill="#B5C7D8" font-size="17" font-family="Inter, Arial, sans-serif">Workflow APIs</text>
  <text x="672" y="280" fill="#B5C7D8" font-size="17" font-family="Inter, Arial, sans-serif">Connector APIs</text>
  <text x="672" y="308" fill="#B5C7D8" font-size="17" font-family="Inter, Arial, sans-serif">Notification Publisher</text>

  <rect x="946" y="160" width="198" height="110" rx="20" fill="#0D1B2A" stroke="#20425E"/>
  <text x="972" y="196" fill="#59E1D9" font-size="14" font-family="Inter, Arial, sans-serif" letter-spacing="2">AI</text>
  <text x="972" y="230" fill="#EEF4FB" font-size="22" font-family="Inter, Arial, sans-serif" font-weight="600">Insights Route</text>
  <text x="972" y="256" fill="#B5C7D8" font-size="16" font-family="Inter, Arial, sans-serif">Node risk analysis</text>

  <rect x="306" y="420" width="260" height="150" rx="22" fill="#0D1B2A" stroke="#20425E"/>
  <text x="332" y="456" fill="#82D949" font-size="14" font-family="Inter, Arial, sans-serif" letter-spacing="2">DATA</text>
  <text x="332" y="492" fill="#EEF4FB" font-size="22" font-family="Inter, Arial, sans-serif" font-weight="600">Registry + Tenant Data</text>
  <text x="332" y="524" fill="#B5C7D8" font-size="17" font-family="Inter, Arial, sans-serif">Tenants, users, connectors</text>
  <text x="332" y="552" fill="#B5C7D8" font-size="17" font-family="Inter, Arial, sans-serif">Workflow defs, nodes, edges</text>

  <rect x="636" y="410" width="270" height="170" rx="22" fill="#0D1B2A" stroke="#20425E"/>
  <text x="662" y="446" fill="#FF9A5A" font-size="14" font-family="Inter, Arial, sans-serif" letter-spacing="2">RUNTIME</text>
  <text x="662" y="482" fill="#EEF4FB" font-size="22" font-family="Inter, Arial, sans-serif" font-weight="600">RabbitMQ + Worker</text>
  <text x="662" y="514" fill="#B5C7D8" font-size="17" font-family="Inter, Arial, sans-serif">Async events</text>
  <text x="662" y="542" fill="#B5C7D8" font-size="17" font-family="Inter, Arial, sans-serif">Retries, DLQ, metrics</text>
  <text x="662" y="570" fill="#B5C7D8" font-size="17" font-family="Inter, Arial, sans-serif">Workflow engine execution</text>

  <rect x="956" y="430" width="188" height="130" rx="20" fill="#0D1B2A" stroke="#20425E"/>
  <text x="982" y="466" fill="#82D949" font-size="14" font-family="Inter, Arial, sans-serif" letter-spacing="2">INTEGRATIONS</text>
  <text x="982" y="500" fill="#EEF4FB" font-size="22" font-family="Inter, Arial, sans-serif" font-weight="600">ERP / WMS</text>
  <text x="982" y="528" fill="#B5C7D8" font-size="16" font-family="Inter, Arial, sans-serif">SAP, Oracle, Relex</text>

  <path d="M276 225H336" stroke="#59E1D9" stroke-width="3" stroke-linecap="round"/>
  <path d="M586 225H646" stroke="#59E1D9" stroke-width="3" stroke-linecap="round"/>
  <path d="M886 215H946" stroke="#59E1D9" stroke-width="3" stroke-linecap="round"/>
  <path d="M456 310V420" stroke="#82D949" stroke-width="3" stroke-linecap="round"/>
  <path d="M766 340V410" stroke="#FF9A5A" stroke-width="3" stroke-linecap="round"/>
  <path d="M906 495H956" stroke="#82D949" stroke-width="3" stroke-linecap="round"/>
  <path d="M566 495H636" stroke="#82D949" stroke-width="3" stroke-linecap="round"/>

  <circle cx="336" cy="225" r="5" fill="#59E1D9"/>
  <circle cx="646" cy="225" r="5" fill="#59E1D9"/>
  <circle cx="946" cy="215" r="5" fill="#59E1D9"/>
  <circle cx="456" cy="420" r="5" fill="#82D949"/>
  <circle cx="766" cy="410" r="5" fill="#FF9A5A"/>
  <circle cx="956" cy="495" r="5" fill="#82D949"/>
  <circle cx="636" cy="495" r="5" fill="#82D949"/>
</svg>
